# xmcd
#
# Track frame offsets:
#	150
#	13763
#	29377
#	45430
#	61394
#	76077
#	91116
#	107375
#	117295
#	130577
#	143802
#
# Disc length: 2162 seconds
# Revision: 0
# Processed by: cddbd v1.5.2PL0 Copyright (c) Steve Scherf et al.
# Submitted via: dBpowerAMP V12.0
#
DISCID=7c08700b
DTITLE=Becky Warren - Undesirable
DYEAR=2018
DGENRE=Country
TTITLE0=We're All We Got
TTITLE1=Nobody Wants to Rock N Roll No More
TTITLE2=Dabbs Avenue
TTITLE3=Sunshine State
TTITLE4=Carmen
TTITLE5=Highway Lights
TTITLE6=Half-Hearted Angel
TTITLE7=You're Always Drunk
TTITLE8=Let Me Down Again
TTITLE9=Valentine
TTITLE10=The Drake Motel
EXTD=
EXTT0=
EXTT1=
EXTT2=
EXTT3=
EXTT4=
EXTT5=
EXTT6=
EXTT7=
EXTT8=
EXTT9=
EXTT10=
PLAYORDER=
